<svg height="512pt" viewBox="0 -12 512.00101 512" width="512pt" xmlns="http://www.w3.org/2000/svg"><path d="m399.640625 136.53125v32.054688h-128.222656v-32.054688zm0 0" fill="#ffe451"/><path d="m399.640625 72.417969v32.054687h-128.222656v-32.054687zm0 0" fill="#aac4da"/><path d="m423.683594 8.304688v32.058593h-128.226563v-32.058593zm0 0" fill="#ffe451"/><path d="m111.136719 56.390625h64.113281v80.140625h-64.113281zm0 0" fill="#ffe451"/><path d="m423.683594 104.472656v32.058594h-128.226563v-32.058594zm0 0" fill="#69f0f7"/><path d="m399.640625 40.363281v32.054688h-128.222656v-32.054688zm0 0" fill="#69f0f7"/><path d="m207.304688 24.335938v144.25h-128.222657v-144.25zm-32.054688 112.195312v-80.140625h-64.113281v80.140625zm0 0" fill="#69f0f7"/><path d="m455.738281 296.808594h32.054688v184.320312h-32.054688zm0 0" fill="#95adc0"/><path d="m22.984375 296.808594h32.054687v184.320312h-32.054687zm0 0" fill="#95adc0"/><path d="m487.792969 200.640625v96.167969h-464.808594v-96.167969zm0 0" fill="#ffe451"/><path d="m503.820312 168.585938v32.054687h-496.863281v-32.054687zm0 0" fill="#d9eef7"/><path d="m22.984375 200.640625h64.109375v96.167969h-64.109375zm0 0" fill="#fbb040"/><path d="m6.957031 168.585938h72.125v32.054687h-72.125zm0 0" fill="#aac4da"/><path d="m111.136719 56.390625h32.058593v80.140625h-32.058593zm0 0" fill="#fbb040"/><path d="m295.457031 8.304688h32.058594v32.058593h-32.058594zm0 0" fill="#fbb040"/><path d="m271.417969 136.53125h32.054687v32.054688h-32.054687zm0 0" fill="#fbb040"/><path d="m295.457031 104.472656h32.058594v32.058594h-32.058594zm0 0" fill="#1dbcc5"/><path d="m271.417969 40.363281h32.054687v32.054688h-32.054687zm0 0" fill="#1dbcc5"/><path d="m271.417969 72.417969h32.054687v32.054687h-32.054687zm0 0" fill="#95adc0"/><path d="m63.21875 256h-15.136719v-31.609375h31.609375v15.136719h-16.472656zm0 0" fill="#fff"/><path d="m416.28125 256.449219h16.027344v15.132812h-16.027344zm0 0" fill="#fff"/><path d="m384.222656 256.449219h16.027344v15.132812h-16.027344zm0 0" fill="#fff"/><g fill="#231f20"><path d="m512 160.28125h-104.179688v-16.921875h24.039063v-47.191406h-24.039063v-48.976563h24.039063v-47.191406h-47.636719v15.136719h32.5v16.921875h-113.085937v-16.921875h56.542969v-15.136719h-71.679688v32.058594h-24.039062v79.246094h24.039062v16.917968h-24.039062v32.058594h-48.976563v-144.253906h-47.636719v15.136718h32.5v129.117188h-113.085937v-129.117188h56.542969v-15.136718h-71.679688v144.253906h-72.125v47.191406h16.027344v280.488282h47.191406v-184.320313h304.976562v-15.136719h-337.03125v-81.035156h152.710938v-15.132812h-168.769531l.03125-16.921876h481.726562v16.921876h-288.945312v15.136718h272.917969v81.03125h-88.597657v15.136719h56.542969v184.320313h47.191406v-280.492188h16.027344zm-463.917969 312.542969h-16.917969v-169.183594h16.917969zm231.515625-425.632813h113.085938v16.921875h-113.085938zm0 32.054688h113.085938v16.921875h-113.085938zm137.125 32.058594v16.917968h-113.085937v-16.917968zm-137.125 48.976562v-16.921875h113.085938v16.921875zm201.238282 312.542969h-16.921876v-169.183594h16.921876zm0 0"/><path d="m448.335938 256.449219h16.027343v15.132812h-16.027343zm0 0"/><path d="m231.957031 240.417969h48.085938v15.136719h-48.085938zm0 0"/><path d="m104.179688 143.359375h79.25v-95.273437h-79.25zm15.136718-80.140625h48.976563v65.003906h-48.976563zm0 0"/></g></svg>