<svg height="376pt" viewBox="0 -34 376.03115 376" width="376pt" xmlns="http://www.w3.org/2000/svg"><path d="m130.269531 6.84375h-123.449219l27.878907 81.917969zm0 0" fill="#fcad3a"/><path d="m34.699219 95.589844c-.601563 0-1.210938-.078125-1.800781-.238282-2.1875-.601562-3.929688-2.242187-4.660157-4.386718l-27.871093-81.921875c-.714844-2.085938-.37109425-4.386719.90625-6.175781 1.285156-1.789063 3.347656-2.851563 5.550781-2.851563h123.445312c2.863281 0 5.414063 1.777344 6.402344 4.460937.992187 2.679688.210937 5.695313-1.960937 7.546876l-95.574219 81.921874c-1.242188 1.070313-2.832031 1.644532-4.4375 1.644532zm-18.339844-81.921875 21.550781 63.347656 73.910156-63.347656zm0 0"/><path d="m294.109375 273.082031h-160.378906c-57.210938 0-105.859375-47.511719-105.859375-104.722656v-80.84375c0-44.554687 38.398437-80.671875 82.949218-80.671875h116.222657c37.667969 0 67.066406 30.535156 67.066406 68.203125zm0 0" fill="#feda38"/><path d="m294.109375 279.910156h-160.378906c-61.078125 0-112.6875-51.082031-112.6875-111.550781v-80.84375c0-47.425781 41.113281-87.5 89.78125-87.5h116.222656c41.433594 0 73.890625 32.960937 73.890625 75.03125v198.035156c0 3.773438-3.054688 6.828125-6.828125 6.828125zm-183.285156-266.242187c-41.265625 0-76.125 33.820312-76.125 73.847656v80.84375c0 53.070313 45.351562 97.894531 99.03125 97.894531h153.554687v-191.207031c0-34.417969-26.460937-61.378906-60.238281-61.378906zm0 0"/><path d="m294.109375 232.121094h75.09375v40.960937h-75.09375zm0 0" fill="#fcad3a"/><path d="m369.203125 279.910156h-75.09375c-3.769531 0-6.824219-3.054687-6.824219-6.828125v-40.960937c0-3.769532 3.054688-6.824219 6.824219-6.824219h75.09375c3.773437 0 6.828125 3.054687 6.828125 6.824219v40.960937c0 3.773438-3.050781 6.828125-6.828125 6.828125zm-68.265625-13.65625h61.441406v-27.304687h-61.441406zm0 0"/><path d="m369.203125 307.214844c-3.769531 0-6.824219-3.054688-6.824219-6.824219v-68.269531c0-3.769532 3.054688-6.824219 6.824219-6.824219 3.773437 0 6.828125 3.054687 6.828125 6.824219v68.269531c0 3.769531-3.050781 6.824219-6.828125 6.824219zm0 0"/><path d="m254.859375 143.375c0 48.070312-38.96875 87.039062-87.042969 87.039062-48.070312 0-87.039062-38.96875-87.039062-87.039062s38.96875-87.039062 87.039062-87.039062c48.074219 0 87.042969 38.96875 87.042969 87.039062zm0 0" fill="#ddd"/><path d="m167.816406 237.242188c-51.757812 0-93.867187-42.105469-93.867187-93.867188 0-51.757812 42.109375-93.867188 93.867187-93.867188 51.761719 0 93.867188 42.109376 93.867188 93.867188 0 51.761719-42.105469 93.867188-93.867188 93.867188zm0-174.078126c-44.226562 0-80.210937 35.984376-80.210937 80.210938s35.984375 80.214844 80.210937 80.214844c44.226563 0 80.214844-35.988282 80.214844-80.214844s-35.988281-80.210938-80.214844-80.210938zm0 0"/><path d="m211.441406 143.375c0 24.09375-19.53125 43.621094-43.625 43.621094-24.089844 0-43.621094-19.527344-43.621094-43.621094 0-24.089844 19.53125-43.621094 43.621094-43.621094 24.09375 0 43.625 19.53125 43.625 43.621094zm0 0" fill="#fff"/><path d="m167.816406 193.828125c-27.816406 0-50.449218-22.632813-50.449218-50.453125 0-27.816406 22.632812-50.453125 50.449218-50.453125 27.820313 0 50.453125 22.636719 50.453125 50.453125 0 27.820312-22.632812 50.453125-50.453125 50.453125zm0-87.25c-20.289062 0-36.796875 16.503906-36.796875 36.796875s16.507813 36.800781 36.796875 36.800781c20.292969 0 36.800782-16.507812 36.800782-36.800781s-16.507813-36.796875-36.800782-36.796875zm0 0"/><path d="m171.230469 102.414062c-3.769531 0-6.824219-3.054687-6.824219-6.824218v-34.132813c0-3.773437 3.054688-6.828125 6.824219-6.828125 3.773437 0 6.828125 3.054688 6.828125 6.828125v34.132813c0 3.769531-3.054688 6.824218-6.828125 6.824218zm0 0"/><path d="m171.230469 232.121094c-3.769531 0-6.824219-3.054688-6.824219-6.824219v-34.132813c0-3.773437 3.054688-6.828124 6.824219-6.828124 3.773437 0 6.828125 3.054687 6.828125 6.828124v34.132813c0 3.769531-3.054688 6.824219-6.828125 6.824219zm0 0"/><path d="m253.152344 150.203125h-34.132813c-3.773437 0-6.828125-3.054687-6.828125-6.828125 0-3.769531 3.054688-6.824219 6.828125-6.824219h34.132813c3.769531 0 6.824218 3.054688 6.824218 6.824219 0 3.773438-3.054687 6.828125-6.824218 6.828125zm0 0"/><path d="m123.445312 150.203125h-34.132812c-3.773438 0-6.828125-3.054687-6.828125-6.828125 0-3.769531 3.054687-6.824219 6.828125-6.824219h34.132812c3.769532 0 6.824219 3.054688 6.824219 6.824219 0 3.773438-3.054687 6.828125-6.824219 6.828125zm0 0"/><path d="m229.160156 208.128906c-1.75 0-3.492187-.664062-4.828125-2l-24.132812-24.132812c-2.664063-2.664063-2.664063-6.984375 0-9.652344 2.667969-2.664062 6.988281-2.664062 9.652343 0l24.132813 24.132812c2.667969 2.667969 2.667969 6.988282 0 9.652344-1.332031 1.332032-3.082031 2-4.824219 2zm0 0"/><path d="m137.4375 116.410156c-1.746094 0-3.488281-.664062-4.824219-2l-24.132812-24.132812c-2.664063-2.664063-2.664063-6.988282 0-9.652344 2.664062-2.664062 6.988281-2.664062 9.652343 0l24.132813 24.132812c2.664063 2.664063 2.664063 6.988282 0 9.652344-1.335937 1.332032-3.082031 2-4.828125 2zm0 0"/><path d="m113.304688 208.128906c-1.75 0-3.492188-.664062-4.828126-2-2.664062-2.664062-2.664062-6.984375 0-9.652344l24.132813-24.132812c2.664063-2.664062 6.988281-2.664062 9.652344 0 2.667969 2.667969 2.667969 6.988281 0 9.652344l-24.132813 24.132812c-1.332031 1.332032-3.078125 2-4.824218 2zm0 0"/><path d="m205.023438 116.410156c-1.746094 0-3.492188-.664062-4.828126-2-2.664062-2.664062-2.664062-6.988281 0-9.652344l24.132813-24.132812c2.667969-2.664062 6.988281-2.664062 9.652344 0 2.667969 2.664062 2.667969 6.988281 0 9.652344l-24.132813 24.132812c-1.328125 1.332032-3.078125 2-4.824218 2zm0 0"/></svg>