<svg height="478pt" viewBox="0 0 478.07781 478" width="478pt" xmlns="http://www.w3.org/2000/svg"><path d="m465.300781 103.027344-90.242187-90.5625c-3-3.003906-7.074219-4.691406-11.320313-4.691406-4.246093 0-8.316406 1.6875-11.320312 4.691406l-339.597657 339.441406c-3.003906 3-4.695312 7.074219-4.695312 11.320312 0 4.246094 1.691406 8.316407 4.695312 11.320313l90.238282 90.480469c3 3.003906 7.074218 4.691406 11.320312 4.691406s8.320313-1.6875 11.320313-4.691406l339.601562-339.363282c3.003907-3 4.691407-7.070312 4.691407-11.316406 0-4.25-1.6875-8.320312-4.691407-11.320312zm-384.640625 294.160156c-9.382812-9.371094-9.390625-24.574219-.015625-33.949219 9.375-9.378906 24.574219-9.378906 33.949219 0 9.371094 9.375 9.367188 24.578125-.015625 33.949219-9.371094 9.355469-24.550781 9.355469-33.917969 0zm0 0" fill="#f9e109"/><path d="m465.300781 103.027344-16.960937-16.5625-265.839844 265.441406c-16.445312 16.394531-37.90625 26.816406-60.960938 29.601562-.410156 9.488282-6.382812 17.847657-15.230468 21.308594-8.847656 3.464844-18.90625 1.378906-25.648438-5.308594-5.472656-5.503906-7.945312-13.3125-6.640625-20.960937-14.492187-5.050781-27.6875-13.246094-38.640625-24l-11.28125-11.921875-11.277344 11.28125c-3.003906 3-4.695312 7.074219-4.695312 11.320312 0 4.246094 1.691406 8.316407 4.695312 11.320313l90.238282 90.480469c3 3.003906 7.074218 4.691406 11.320312 4.691406s8.320313-1.6875 11.320313-4.691406l339.601562-339.363282c3.003907-3 4.691407-7.070312 4.691407-11.316406 0-4.25-1.6875-8.320312-4.691407-11.320312zm0 0" fill="#fcbc04"/><path d="m154.179688 368.867188c-3.101563-3.121094-3.101563-8.160157 0-11.28125l248.960937-248.960938c3.117187-3.101562 8.15625-3.101562 11.277344 0 1.515625 1.503906 2.367187 3.546875 2.367187 5.679688 0 2.132812-.851562 4.179687-2.367187 5.679687l-248.878907 248.882813c-1.503906 1.511718-3.546874 2.363281-5.679687 2.363281s-4.179687-.851563-5.679687-2.363281zm0 0" fill="#7ab92d"/><g fill="#2d72bc"><path d="m391.777344 97.347656c3.101562-3.121094 3.101562-8.160156 0-11.28125l-56.71875-56.640625-11.121094 11.359375 56.5625 56.5625c3.121094 3.101563 8.160156 3.101563 11.277344 0zm0 0"/><path d="m335.058594 108.625c3.101562-3.121094 3.101562-8.160156 0-11.277344l-33.917969-33.921875-11.363281 11.28125 34 33.917969c3.121094 3.101562 8.160156 3.101562 11.28125 0zm0 0"/><path d="m323.9375 165.1875c3.101562-3.121094 3.101562-8.160156 0-11.28125l-56.558594-56.558594-11.359375 11.277344 56.558594 56.5625c1.503906 1.511719 3.546875 2.363281 5.679687 2.363281 2.132813 0 4.179688-.851562 5.679688-2.363281zm0 0"/><path d="m267.378906 176.546875c1.515625-1.503906 2.367188-3.546875 2.367188-5.679687 0-2.132813-.851563-4.179688-2.367188-5.679688l-34-33.921875-11.28125 11.199219 33.921875 33.921875c1.480469 1.535156 3.511719 2.414062 5.644531 2.445312 2.132813.03125 4.191407-.792969 5.714844-2.285156zm0 0"/><path d="m256.019531 233.105469c3.101563-3.121094 3.101563-8.160157 0-11.28125l-56.5625-56.636719-11.277343 11.359375 56.558593 56.558594c3.121094 3.101562 8.160157 3.101562 11.28125 0zm0 0"/><path d="m199.457031 244.386719c3.105469-3.121094 3.105469-8.160157 0-11.28125l-33.917969-33.917969-11.359374 11.277344 34 33.921875c3.121093 3.101562 8.160156 3.101562 11.277343 0zm0 0"/><path d="m188.179688 301.027344c1.515624-1.503906 2.367187-3.546875 2.367187-5.679688 0-2.136718-.851563-4.179687-2.367187-5.683594l-56.640626-56.558593-11.28125 11.28125 56.5625 56.640625c1.5 1.511718 3.546876 2.363281 5.679688 2.363281s4.175781-.851563 5.679688-2.363281zm0 0"/><path d="m131.539062 312.304688c3.101563-3.117188 3.101563-8.160157 0-11.277344l-33.921874-34-11.277344 11.4375 33.917968 33.921875c3.144532 3.078125 8.183594 3.042969 11.28125-.082031zm0 0"/><path d="m414.417969 142.464844c-3.101563 3.121094-3.101563 8.160156 0 11.28125l11.28125 11.28125 11.359375-11.28125-11.359375-11.28125c-3.121094-3.101563-8.160157-3.101563-11.28125 0zm0 0"/><path d="m391.777344 165.1875c-1.511719 1.5-2.363282 3.546875-2.363282 5.679688 0 2.132812.851563 4.175781 2.363282 5.679687l11.363281 11.277344 11.277344-11.277344-11.277344-11.359375c-1.503906-1.515625-3.546875-2.367188-5.683594-2.367188-2.132812 0-4.175781.851563-5.679687 2.367188zm0 0"/><path d="m369.140625 187.824219c-1.515625 1.503906-2.367187 3.546875-2.367187 5.683593 0 2.132813.851562 4.175782 2.367187 5.679688l11.359375 11.277344 11.277344-11.277344-11.277344-11.363281c-1.503906-1.511719-3.546875-2.363281-5.679688-2.363281-2.132812 0-4.179687.851562-5.679687 2.363281zm0 0"/><path d="m346.578125 210.464844c-1.515625 1.503906-2.367187 3.546875-2.367187 5.679687 0 2.132813.851562 4.179688 2.367187 5.679688l11.28125 11.28125 11.28125-11.28125-11.28125-11.359375c-3.121094-3.101563-8.160156-3.101563-11.28125 0zm0 0"/><path d="m323.9375 233.105469c-3.101562 3.121093-3.101562 8.160156 0 11.28125l11.121094 11.359375 11.359375-11.359375-11.359375-11.28125c-3.101563-2.996094-8.019532-2.996094-11.121094 0zm0 0"/><path d="m301.300781 255.746094c-3.105469 3.121094-3.105469 8.160156 0 11.28125l11.277344 11.4375 11.359375-11.359375-11.359375-11.28125c-3.097656-3.121094-8.136719-3.15625-11.277344-.078125zm0 0"/><path d="m279.058594 278.464844c-3.101563 3.121094-3.101563 8.160156 0 11.28125l11.28125 11.359375 11.359375-11.359375-11.761719-11.28125c-3.066406-2.84375-7.808594-2.84375-10.878906 0zm0 0"/><path d="m256.019531 301.027344c-3.101562 3.117187-3.101562 8.160156 0 11.277344l11.359375 11.28125 11.679688-11.28125-11.28125-11.277344c-1.511719-1.644532-3.644532-2.578125-5.878906-2.578125-2.234376 0-4.363282.933593-5.878907 2.578125zm0 0"/><path d="m233.378906 323.585938c-1.515625 1.503906-2.367187 3.546874-2.367187 5.679687s.851562 4.179687 2.367187 5.679687l11.359375 11.28125 11.28125-11.28125-11.28125-11.359374c-1.5-1.515626-3.546875-2.367188-5.679687-2.367188-2.132813 0-4.175782.851562-5.679688 2.367188zm0 0"/><path d="m210.738281 346.226562c-1.515625 1.5-2.367187 3.546876-2.367187 5.679688s.851562 4.175781 2.367187 5.679688l11.359375 11.28125 11.28125-11.28125-11.28125-11.359376c-1.5-1.515624-3.546875-2.367187-5.679687-2.367187-2.132813 0-4.175781.851563-5.679688 2.367187zm0 0"/><path d="m188.179688 368.867188c-1.515626 1.5-2.367188 3.546874-2.367188 5.679687s.851562 4.175781 2.367188 5.679687l11.277343 11.28125 11.28125-11.28125-11.28125-11.359374c-3.117187-3.101563-8.15625-3.101563-11.277343 0zm0 0"/></g><path d="m471.058594 97.347656-90.558594-90.480468c-9.476562-9.105469-24.445312-9.105469-33.921875 0l-22.640625 22.558593-316.878906 316.800781c-4.519532 4.503907-7.058594 10.621094-7.058594 17 0 6.378907 2.539062 12.496094 7.058594 17l90.558594 90.238282c4.5 4.503906 10.597656 7.035156 16.960937 7.042968 6.375.046876 12.496094-2.492187 16.960937-7.042968l169.761719-169.4375 22.636719-22.5625c1.515625-1.5 2.367188-3.546875 2.367188-5.679688 0-2.132812-.851563-4.175781-2.367188-5.679687l-11.359375-11.28125c-1.953125-2.28125-5.023437-3.277344-7.945313-2.574219-2.921874.703125-5.207031 2.984375-5.910156 5.910156-.703125 2.921875.292969 5.992188 2.578125 7.945313l5.679688 5.679687-11.363281 11.28125-5.679688-5.601562c-3.191406-1.960938-7.316406-1.445313-9.925781 1.242187s-3.003907 6.824219-.953125 9.957031l5.679687 5.683594-11.359375 11.277344-5.601562-5.597656c-1.5-1.515625-3.546875-2.367188-5.679688-2.367188-2.132812 0-4.175781.851563-5.679687 2.367188-3.101563 3.117187-3.101563 8.160156 0 11.277344l5.679687 5.679687-11.359375 11.28125-5.597656-5.679687c-3.140625-3.136719-8.226563-3.136719-11.363281 0-3.136719 3.136718-3.136719 8.222656 0 11.359374l5.679687 5.679688-11.277343 11.28125-5.679688-5.679688c-3.136719-3.136718-8.222656-3.136718-11.359375 0-3.140625 3.136719-3.140625 8.222657 0 11.359376l5.679687 5.601562-11.679687 11.277344-5.683594-5.679688c-3.117187-3.101562-8.15625-3.101562-11.277343 0-1.515626 1.503906-2.367188 3.546875-2.367188 5.679688 0 2.132812.851562 4.179687 2.367188 5.679687l5.597656 5.601563-73.519532 73.519531c-3.121093 3.101563-8.160156 3.101563-11.277343 0l-90.5625-90.398437c-3.101563-3.121094-3.101563-8.160157 0-11.28125l73.601562-73.601563 28.238281 28.320313c1.511719 1.5 3.554688 2.332031 5.679688 2.320312 2.101562-.007812 4.113281-.839844 5.601562-2.320312 3.101563-3.117188 3.101563-8.160157 0-11.277344l-28.480468-28.320313 22.640625-22.640625 50.878906 50.960938c1.511719 1.496094 3.554687 2.332031 5.679687 2.320312 2.128907.011719 4.171876-.824218 5.679688-2.320312 1.515625-1.503906 2.367188-3.546875 2.367188-5.679688 0-2.136718-.851563-4.179687-2.367188-5.683594l-50.71875-51.199218 22.640625-22.640625 28.320313 28.242187c1.476562 1.507813 3.488281 2.371094 5.597656 2.398438 3.25.019531 6.191406-1.929688 7.4375-4.929688 1.246094-3.003906.550781-6.460937-1.757813-8.75l-28.316406-28.320312 22.636719-22 50.960937 50.882812c3.121094 3.101563 8.160157 3.101563 11.28125 0 3.101563-3.121094 3.101563-8.160156 0-11.28125l-50.878906-50.960937 22.636719-22.640625 28.242187 28.320312c1.507813 1.5 3.554688 2.332032 5.679688 2.320313 2.125.011719 4.171875-.820313 5.679687-2.320313 1.515625-1.5 2.367188-3.546875 2.367188-5.679687 0-2.132813-.851563-4.175781-2.367188-5.679688l-28.320312-28.480469 22.640625-22.640624 50.878906 50.882812c3.117187 3.136719 8.183594 3.152344 11.320313.039062 3.136718-3.117187 3.15625-8.183593.039062-11.320312l-50.957031-50.878906 22.636719-22.640625 28.320312 28.238281c3.121094 3.101562 8.160156 3.101562 11.28125 0 3.101562-3.121094 3.101562-8.160156 0-11.277344l-28.238281-28.320312 22.558593-22.5625 50.960938 50.882812c1.738281 2.742188 4.960938 4.164063 8.160156 3.59375 3.199219-.570312 5.734375-3.015625 6.417969-6.191406s-.621094-6.449219-3.300781-8.285156l-50.878906-51.359375 16.960937-16.960938c3.121094-3.101562 8.160156-3.101562 11.28125 0l90.558594 90.480469c1.515625 1.503906 2.367187 3.546875 2.367187 5.679688 0 2.132812-.851562 4.179687-2.367187 5.679687l-28.640625 28.242187-5.679688-5.601562c-3.175781-2.71875-7.90625-2.535156-10.859375.421875-2.957031 2.953125-3.140625 7.683594-.421875 10.859375l5.679688 5.679688-11.359375 11.28125-5.597657-5.679688c-3.136718-3.136719-8.222656-3.136719-11.363281 0-3.136719 3.136719-3.136719 8.222656 0 11.359375l5.683594 5.679687-11.363281 11.28125-5.597656-5.683593c-3.136719-3.136719-8.222657-3.136719-11.359376 0-3.136718 3.136719-3.136718 8.226562 0 11.363281l5.679688 5.597656-11.28125 11.359375-5.679688-5.679687c-3.136718-3.113282-8.207031-3.097656-11.320312.042968-3.113281 3.136719-3.097656 8.203126.039062 11.316407l11.28125 11.28125c3.121094 3.101562 8.160157 3.101562 11.28125 0l102.238282-101.839844c9.359375-9.371094 9.359375-24.550781 0-33.917969zm0 0" fill="#39519d"/><path d="m108.980469 368.867188c1.953125 2.28125 5.023437 3.277343 7.945312 2.574218s5.203125-2.984375 5.90625-5.90625c.703125-2.925781-.289062-5.996094-2.574219-7.949218-10.242187-10.230469-26.078124-12.3125-38.617187-5.070313-12.535156 7.238281-18.652344 21.996094-14.910156 35.980469 3.742187 13.988281 16.410156 23.71875 30.886719 23.730468 8.503906-.015624 16.648437-3.410156 22.640624-9.441406 2.285157-1.953125 3.277344-5.023437 2.574219-7.945312s-2.984375-5.207032-5.90625-5.910156c-2.921875-.703126-5.992187.292968-7.945312 2.578124-3.003907 3.003907-7.074219 4.691407-11.320313 4.691407s-8.320312-1.6875-11.320312-4.691407c-3.003906-3.003906-4.695313-7.074218-4.695313-11.320312 0-4.25 1.691407-8.320312 4.695313-11.320312 3-3.003907 7.074218-4.695313 11.320312-4.695313s8.316406 1.691406 11.320313 4.695313zm0 0" fill="#39519d"/><path d="m414.417969 108.625c-3.121094-3.101562-8.160157-3.101562-11.277344 0l-248.960937 248.960938c-3.101563 3.121093-3.101563 8.160156 0 11.28125 1.5 1.511718 3.546874 2.363281 5.679687 2.363281s4.175781-.851563 5.679687-2.363281l248.878907-248.882813c1.515625-1.5 2.367187-3.546875 2.367187-5.679687 0-2.132813-.851562-4.175782-2.367187-5.679688zm0 0" fill="#39519d"/><path d="m335.058594 233.105469c-1.953125-2.28125-5.023438-3.277344-7.945313-2.574219-2.925781.703125-5.207031 2.984375-5.910156 5.90625s.292969 5.992188 2.574219 7.949219l11.28125 11.359375c1.511718 1.496094 3.554687 2.332031 5.679687 2.320312 2.128907.011719 4.171875-.824218 5.679688-2.320312 1.515625-1.503906 2.367187-3.546875 2.367187-5.679688 0-2.132812-.851562-4.179687-2.367187-5.679687zm0 0" fill="#39519d"/></svg>