<svg height="496pt" viewBox="-80 0 496 496" width="496pt" xmlns="http://www.w3.org/2000/svg"><path d="m72 488h-16c-17.671875 0-32-14.328125-32-32h80c0 17.671875-14.328125 32-32 32zm0 0" fill="#999"/><path d="m280 488h-16c-17.671875 0-32-14.328125-32-32h80c0 17.671875-14.328125 32-32 32zm0 0" fill="#999"/><path d="m8 232h320v224h-320zm0 0" fill="#bab8b9"/><path d="m8 232h288v224h-288zm0 0" fill="#d9d7d8"/><path d="m248 344c0 44.183594-35.816406 80-80 80s-80-35.816406-80-80 35.816406-80 80-80 80 35.816406 80 80zm0 0" fill="#70b48f"/><path d="m184 344c0 8.835938-7.164062 16-16 16s-16-7.164062-16-16 7.164062-16 16-16 16 7.164062 16 16zm0 0" fill="#fff"/><path d="m88 200h32v32h-32zm0 0" fill="#999"/><path d="m216 200h32v32h-32zm0 0" fill="#999"/><path d="m328 136h-320c0 35.34375 28.65625 64 64 64h192c35.34375 0 64-28.65625 64-64zm0 0" fill="#bab8b9"/><path d="m304 136h-296c0 35.34375 28.65625 64 64 64h168c35.34375 0 64-28.65625 64-64zm0 0" fill="#d9d7d8"/><path d="m232 72c0 35.347656-28.652344 64-64 64s-64-28.652344-64-64 28.652344-64 64-64 64 28.652344 64 64zm0 0" fill="#df9363"/><path d="m232 72c0-34.707031-23.28125-62.839844-52-62.839844s-52 28.132813-52 62.839844 23.28125 62.839844 52 62.839844 52-28.132813 52-62.839844zm0 0" fill="#eea273"/><path d="m280 8c-26.511719 0-48 21.488281-48 48v16c26.511719 0 48-21.488281 48-48zm0 0" fill="#599072"/><path d="m248 56v13.207031c18.632812-6.597656 32-24.320312 32-45.207031v-13.207031c-18.632812 6.589843-32 24.320312-32 45.207031zm0 0" fill="#70b48f"/><path d="m328 464h-320c-4.425781 0-8-3.574219-8-8v-224c0-4.425781 3.574219-8 8-8h320c4.425781 0 8 3.574219 8 8v224c0 4.425781-3.574219 8-8 8zm-312-16h304v-208h-304zm0 0"/><path d="m72 496h-16c-22.054688 0-40-17.945312-40-40 0-4.425781 3.574219-8 8-8h80c4.425781 0 8 3.574219 8 8 0 22.054688-17.945312 40-40 40zm-38.632812-32c3.304687 9.3125 12.199218 16 22.632812 16h16c10.433594 0 19.328125-6.6875 22.632812-16zm0 0"/><path d="m280 496h-16c-22.054688 0-40-17.945312-40-40 0-4.425781 3.574219-8 8-8h80c4.425781 0 8 3.574219 8 8 0 22.054688-17.945312 40-40 40zm-38.632812-32c3.304687 9.3125 12.199218 16 22.632812 16h16c10.433594 0 19.328125-6.6875 22.632812-16zm0 0"/><path d="m168 432c-48.519531 0-88-39.480469-88-88s39.480469-88 88-88 88 39.480469 88 88-39.480469 88-88 88zm0-160c-39.703125 0-72 32.296875-72 72s32.296875 72 72 72 72-32.296875 72-72-32.296875-72-72-72zm0 0"/><path d="m264 208h-192c-39.703125 0-72-32.296875-72-72 0-4.425781 3.574219-8 8-8h320c4.425781 0 8 3.574219 8 8 0 39.703125-32.296875 72-72 72zm-247.433594-64c3.890625 27.105469 27.265625 48 55.433594 48h192c28.167969 0 51.535156-20.894531 55.433594-48zm0 0"/><path d="m168 368c-13.230469 0-24-10.769531-24-24s10.769531-24 24-24 24 10.769531 24 24-10.769531 24-24 24zm0-32c-4.414062 0-8 3.585938-8 8s3.585938 8 8 8 8-3.585938 8-8-3.585938-8-8-8zm0 0"/><path d="m122.339844 309.660156 11.316406-11.316406 32 32-11.3125 11.316406zm0 0"/><path d="m80 200h16v32h-16zm0 0"/><path d="m240 200h16v32h-16zm0 0"/><path d="m112 200h16v32h-16zm0 0"/><path d="m208 200h16v32h-16zm0 0"/><path d="m168 144c-39.703125 0-72-32.296875-72-72s32.296875-72 72-72 72 32.296875 72 72-32.296875 72-72 72zm0-128c-30.871094 0-56 25.128906-56 56s25.128906 56 56 56 56-25.128906 56-56-25.128906-56-56-56zm0 0"/><path d="m208 72h-16c0-13.230469-10.769531-24-24-24v-16c22.054688 0 40 17.945312 40 40zm0 0"/><path d="m232 64h72v16h-72zm0 0"/><path d="m232 80c-4.425781 0-8-3.574219-8-8v-16c0-30.871094 25.128906-56 56-56 4.425781 0 8 3.574219 8 8v16c0 30.871094-25.128906 56-56 56zm40-63.191406c-18.230469 3.710937-32 19.871094-32 39.191406v7.191406c18.230469-3.710937 32-19.871094 32-39.191406zm0 0"/></svg>